<mxfile host="app.diagrams.net" modified="2023-10-19T19:01:03.606Z" agent="Mozilla/5.0 (Macintosh; Intel Mac OS X 10_15_7) AppleWebKit/537.36 (KHTML, like Gecko) Chrome/117.0.0.0 Safari/537.36" etag="KBuyQIL_G2OOsQ6uAKAR" version="22.0.5" type="github">
  <diagram name="Seite-1" id="yCdalCre_s9uFKe3DVMr">
    <mxGraphModel dx="872" dy="725" grid="1" gridSize="10" guides="1" tooltips="1" connect="1" arrows="1" fold="1" page="1" pageScale="1" pageWidth="827" pageHeight="1169" math="0" shadow="0">
      <root>
        <mxCell id="0" />
        <mxCell id="1" parent="0" />
        <mxCell id="FzWNehdYLfru7YHnqkKN-1" value="Yoga Admin" style="shape=umlActor;verticalLabelPosition=bottom;verticalAlign=top;html=1;outlineConnect=0;" vertex="1" parent="1">
          <mxGeometry x="50" y="160" width="30" height="60" as="geometry" />
        </mxCell>
        <mxCell id="FzWNehdYLfru7YHnqkKN-7" style="edgeStyle=orthogonalEdgeStyle;rounded=0;orthogonalLoop=1;jettySize=auto;html=1;" edge="1" parent="1" source="FzWNehdYLfru7YHnqkKN-6" target="FzWNehdYLfru7YHnqkKN-1">
          <mxGeometry relative="1" as="geometry" />
        </mxCell>
        <mxCell id="FzWNehdYLfru7YHnqkKN-6" value="Sequenz hochladen" style="ellipse;whiteSpace=wrap;html=1;" vertex="1" parent="1">
          <mxGeometry x="190" y="10" width="140" height="70" as="geometry" />
        </mxCell>
        <mxCell id="FzWNehdYLfru7YHnqkKN-8" value="Sequenz taggen, beschreiben, ..." style="ellipse;whiteSpace=wrap;html=1;" vertex="1" parent="1">
          <mxGeometry x="180" y="80" width="140" height="70" as="geometry" />
        </mxCell>
        <mxCell id="FzWNehdYLfru7YHnqkKN-9" style="edgeStyle=orthogonalEdgeStyle;rounded=0;orthogonalLoop=1;jettySize=auto;html=1;entryX=0.5;entryY=0.5;entryDx=0;entryDy=0;entryPerimeter=0;" edge="1" parent="1" source="FzWNehdYLfru7YHnqkKN-8" target="FzWNehdYLfru7YHnqkKN-1">
          <mxGeometry relative="1" as="geometry" />
        </mxCell>
        <mxCell id="FzWNehdYLfru7YHnqkKN-10" value="Push Frequenz konfigurieren" style="ellipse;whiteSpace=wrap;html=1;" vertex="1" parent="1">
          <mxGeometry x="170" y="150" width="140" height="70" as="geometry" />
        </mxCell>
        <mxCell id="FzWNehdYLfru7YHnqkKN-11" style="edgeStyle=orthogonalEdgeStyle;rounded=0;orthogonalLoop=1;jettySize=auto;html=1;entryX=0.5;entryY=0.5;entryDx=0;entryDy=0;entryPerimeter=0;" edge="1" parent="1" source="FzWNehdYLfru7YHnqkKN-10" target="FzWNehdYLfru7YHnqkKN-1">
          <mxGeometry relative="1" as="geometry" />
        </mxCell>
        <mxCell id="FzWNehdYLfru7YHnqkKN-12" value="wie&amp;nbsp; pushen, wenn noch nicht absolviert?" style="shape=note;whiteSpace=wrap;html=1;backgroundOutline=1;darkOpacity=0.05;" vertex="1" parent="1">
          <mxGeometry x="350" y="195" width="80" height="100" as="geometry" />
        </mxCell>
        <mxCell id="FzWNehdYLfru7YHnqkKN-13" value="User" style="shape=umlActor;verticalLabelPosition=bottom;verticalAlign=top;html=1;outlineConnect=0;" vertex="1" parent="1">
          <mxGeometry x="60" y="350" width="30" height="60" as="geometry" />
        </mxCell>
        <mxCell id="FzWNehdYLfru7YHnqkKN-14" value="Login/Register" style="ellipse;whiteSpace=wrap;html=1;" vertex="1" parent="1">
          <mxGeometry x="140" y="270" width="120" height="80" as="geometry" />
        </mxCell>
        <mxCell id="FzWNehdYLfru7YHnqkKN-15" style="edgeStyle=orthogonalEdgeStyle;rounded=0;orthogonalLoop=1;jettySize=auto;html=1;entryX=1;entryY=0.3333333333333333;entryDx=0;entryDy=0;entryPerimeter=0;" edge="1" parent="1" source="FzWNehdYLfru7YHnqkKN-14" target="FzWNehdYLfru7YHnqkKN-13">
          <mxGeometry relative="1" as="geometry" />
        </mxCell>
        <mxCell id="FzWNehdYLfru7YHnqkKN-27" style="edgeStyle=orthogonalEdgeStyle;rounded=0;orthogonalLoop=1;jettySize=auto;html=1;" edge="1" parent="1" source="FzWNehdYLfru7YHnqkKN-16" target="FzWNehdYLfru7YHnqkKN-13">
          <mxGeometry relative="1" as="geometry" />
        </mxCell>
        <mxCell id="FzWNehdYLfru7YHnqkKN-16" value="Sequenz schauen" style="ellipse;whiteSpace=wrap;html=1;" vertex="1" parent="1">
          <mxGeometry x="150" y="330" width="120" height="80" as="geometry" />
        </mxCell>
        <mxCell id="FzWNehdYLfru7YHnqkKN-20" value="Zeit" style="shape=umlActor;verticalLabelPosition=bottom;verticalAlign=top;html=1;outlineConnect=0;" vertex="1" parent="1">
          <mxGeometry x="50" y="650" width="30" height="60" as="geometry" />
        </mxCell>
        <mxCell id="FzWNehdYLfru7YHnqkKN-31" style="edgeStyle=orthogonalEdgeStyle;rounded=0;orthogonalLoop=1;jettySize=auto;html=1;" edge="1" parent="1" source="FzWNehdYLfru7YHnqkKN-21">
          <mxGeometry relative="1" as="geometry">
            <mxPoint x="90" y="690" as="targetPoint" />
          </mxGeometry>
        </mxCell>
        <mxCell id="FzWNehdYLfru7YHnqkKN-21" value="Push mitteilung auslösen" style="ellipse;whiteSpace=wrap;html=1;" vertex="1" parent="1">
          <mxGeometry x="140" y="650" width="120" height="80" as="geometry" />
        </mxCell>
        <mxCell id="FzWNehdYLfru7YHnqkKN-24" style="edgeStyle=orthogonalEdgeStyle;rounded=0;orthogonalLoop=1;jettySize=auto;html=1;" edge="1" parent="1" source="FzWNehdYLfru7YHnqkKN-23">
          <mxGeometry relative="1" as="geometry">
            <mxPoint x="90" y="210" as="targetPoint" />
          </mxGeometry>
        </mxCell>
        <mxCell id="FzWNehdYLfru7YHnqkKN-23" value="User verwalten" style="ellipse;whiteSpace=wrap;html=1;" vertex="1" parent="1">
          <mxGeometry x="200" y="210" width="140" height="70" as="geometry" />
        </mxCell>
        <mxCell id="FzWNehdYLfru7YHnqkKN-28" style="edgeStyle=orthogonalEdgeStyle;rounded=0;orthogonalLoop=1;jettySize=auto;html=1;" edge="1" parent="1" source="FzWNehdYLfru7YHnqkKN-25">
          <mxGeometry relative="1" as="geometry">
            <mxPoint x="100" y="400" as="targetPoint" />
          </mxGeometry>
        </mxCell>
        <mxCell id="FzWNehdYLfru7YHnqkKN-25" value="Sequenz suchen" style="ellipse;whiteSpace=wrap;html=1;" vertex="1" parent="1">
          <mxGeometry x="160" y="390" width="120" height="80" as="geometry" />
        </mxCell>
        <mxCell id="FzWNehdYLfru7YHnqkKN-29" style="edgeStyle=orthogonalEdgeStyle;rounded=0;orthogonalLoop=1;jettySize=auto;html=1;" edge="1" parent="1" source="FzWNehdYLfru7YHnqkKN-26">
          <mxGeometry relative="1" as="geometry">
            <mxPoint x="100" y="420" as="targetPoint" />
          </mxGeometry>
        </mxCell>
        <mxCell id="FzWNehdYLfru7YHnqkKN-26" value="Pain Points wählen" style="ellipse;whiteSpace=wrap;html=1;" vertex="1" parent="1">
          <mxGeometry x="130" y="450" width="120" height="80" as="geometry" />
        </mxCell>
        <mxCell id="FzWNehdYLfru7YHnqkKN-30" value="Sequenz liken" style="ellipse;whiteSpace=wrap;html=1;" vertex="1" parent="1">
          <mxGeometry x="80" y="505" width="120" height="80" as="geometry" />
        </mxCell>
        <mxCell id="FzWNehdYLfru7YHnqkKN-33" style="edgeStyle=orthogonalEdgeStyle;rounded=0;orthogonalLoop=1;jettySize=auto;html=1;" edge="1" parent="1" source="FzWNehdYLfru7YHnqkKN-32">
          <mxGeometry relative="1" as="geometry">
            <mxPoint x="70" y="440" as="targetPoint" />
          </mxGeometry>
        </mxCell>
        <mxCell id="FzWNehdYLfru7YHnqkKN-32" value="Vorschläge betrachten" style="ellipse;whiteSpace=wrap;html=1;" vertex="1" parent="1">
          <mxGeometry x="30" y="560" width="120" height="65" as="geometry" />
        </mxCell>
      </root>
    </mxGraphModel>
  </diagram>
</mxfile>
